
nColumns=19
nRows=61
DataType=double
version=3
OpenSimVersion=4.4-2022-10-11-798caa840
endheader
time	ground_force_calcn_r_vx	ground_force_calcn_r_vy	ground_force_calcn_r_vz	ground_force_calcn_r_px	ground_force_calcn_r_py	ground_force_calcn_r_pz	ground_force_calcn_r_mx	ground_force_calcn_r_my	ground_force_calcn_r_mz	ground_force_calcn_l_vx	ground_force_calcn_l_vy	ground_force_calcn_l_vz	ground_force_calcn_l_px	ground_force_calcn_l_py	ground_force_calcn_l_pz	ground_force_calcn_l_mx	ground_force_calcn_l_my	ground_force_calcn_l_mz
1.12	-36.4774	53.7762	7.81248	-0.0884619	0	-0.374733	-0.157328	0.231939	0.0336955	0	0	0	0	0	0	0	0	0
1.13	-325.742	454.774	-3.09727	-0.0977193	0	-0.366138	-0.397242	0.554597	-0.00377711	0	0	0	0	0	0	0	0	0
1.14	-532.263	739.5940000000001	-42.8744	-0.0976326	0	-0.363631	-0.0605691	0.0841624	-0.00487891	-137.24	183.852	25.4984	-0.108135	0	-0.884062	-0.200226	0.268229	0.0372007
1.15	-297.827	635.073	-12.1145	-0.108556	0	-0.361761	1.03204	-2.20066	0.0419793	-346.083	524.7140000000001	102.582	-0.121966	0	-0.881151	-0.350668	0.5316650000000001	0.103941
1.16	-207.34	891.205	-44.8072	-0.166943	0	-0.356309	0.970225	-4.1703	0.209671	-229.51	476.467	96.4734	-0.129151	0	-0.875743	-0.157717	0.327424	0.0662956
1.17	-76.83710000000001	1576.13	-130.055	-0.219959	0	-0.355329	0.295576	-6.06301	0.500292	-59.3019	339.983	56.6645	-0.137024	0	-0.8668670000000001	-0.100227	0.574609	0.0957693
1.18	42.8632	1683.15	-170.633	-0.230061	0	-0.353395	-0.17501	-6.8723	0.696693	-143.276	431.501	84.4683	-0.15358	0	-0.8638169999999999	-0.6599390000000001	1.98753	0.389068
1.19	-167.449	1160.17	-144.035	-0.195814	0	-0.347172	0.954488	-6.61314	0.821024	-185.635	741.026	92.57429999999999	-0.20498	0	-0.850371	-1.31044	5.23107	0.653502
1.2	-316.124	792.206	-101.087	-0.146322	0	-0.340967	2.78987	-6.99141	0.892119	-32.0983	1158.96	125.329	-0.24911	0	-0.840541	-0.157533	5.68797	0.6150949999999999
1.21	-306.944	668.115	-72.59480000000001	-0.127867	0	-0.339403	3.65585	-7.95755	0.864637	78.926	1177.64	216.4	-0.257088	0	-0.84254	0.208623	3.11281	0.572004
1.22	-263.14	640.804	-64.1126	-0.128119	0	-0.339665	3.40234	-8.285450000000001	0.8289609999999999	-58.4545	877.11	219.014	-0.228352	0	-0.8484969999999999	0.0135387	-0.203148	-0.0507261
1.23	-234.974	664.116	-73.3129	-0.131464	0	-0.33874	2.69323	-7.61199	0.8403	-189.256	681.261	165.299	-0.195142	0	-0.852491	-0.43582	1.56882	0.380652
1.24	-207.45	730.862	-96.39239999999999	-0.137261	0	-0.336579	1.69941	-5.98716	0.789639	-194.437	587.701	104.688	-0.185096	0	-0.853706	-2.21877	6.70643	1.19463
1.25	-154.682	841.123	-126.31	-0.146164	0	-0.334395	0.695959	-3.78447	0.568306	-148.298	517.693	67.4378	-0.182225	0	-0.8533539999999999	-2.86097	9.98734	1.30101
1.26	-94.9919	975.932	-150.99	-0.154618	0	-0.333349	0.179573	-1.84491	0.285432	-137.6	482.514	56.7516	-0.176149	0	-0.854322	-3.00198	10.5269	1.23813
1.27	-60.177	1053.4	-146.581	-0.157881	0	-0.33376	0.113633	-1.98915	0.27679	-143.435	475.241	52.8726	-0.170751	0	-0.8553770000000001	-3.15717	10.4606	1.16378
1.28	-64.3578	1014.25	-116.38	-0.15418	0	-0.334554	0.257039	-4.05083	0.464812	-129.947	471.826	50.3788	-0.168281	0	-0.855124	-2.86981	10.42	1.11259
1.29	-86.3357	902.335	-89.90779999999999	-0.146026	0	-0.334498	0.5316610000000001	-5.55664	0.553659	-105.708	477.76	54.6121	-0.168015	0	-0.85395	-2.17947	9.85041	1.12599
1.3	-102.372	799.093	-82.3909	-0.138342	0	-0.333638	0.6436190000000001	-5.02396	0.517998	-84.2274	494.856	63.3996	-0.168705	0	-0.8529679999999999	-1.47066	8.640459999999999	1.10699
1.31	-110.3	740.564	-92.16379999999999	-0.133599	0	-0.332339	0.411255	-2.7612	0.343633	-64.21939999999999	505.515	70.3233	-0.168905	0	-0.852759	-0.934235	7.354	1.02303
1.32	-110.838	725.418	-109.119	-0.131548	0	-0.330864	0.0223331	-0.146166	0.0219868	-50.0454	506.129	74.6979	-0.16793	0	-0.8532999999999999	-0.617552	6.24555	0.92176
1.33	-103.072	745.765	-123.002	-0.131658	0	-0.329836	-0.236974	1.71459	-0.282796	-44.1137	503.029	80.7992	-0.165391	0	-0.85436	-0.459573	5.24051	0.841759
1.34	-90.48560000000001	788.2329999999999	-128.986	-0.133178	0	-0.329835	-0.270596	2.3572	-0.385732	-43.834	497.806	83.87430000000001	-0.162231	0	-0.855063	-0.406817	4.62005	0.778424
1.35	-77.1435	836.4880000000001	-125.252	-0.135197	0	-0.33076	-0.143395	1.55488	-0.23282	-45.3395	489.028	79.6281	-0.159894	0	-0.854943	-0.437221	4.71582	0.7678739999999999
1.36	-67.22369999999999	878.39	-114.535	-0.136854	0	-0.332159	0.0198943	-0.259953	0.0338956	-47.4322	476.394	70.5376	-0.158374	0	-0.854271	-0.527782	5.30087	0.784877
1.37	-63.4592	904.248	-103.41	-0.137734	0	-0.333475	0.144565	-2.05995	0.235576	-49.7171	463.712	60.5253	-0.157664	0	-0.853373	-0.6492560000000001	6.05563	0.790402
1.38	-64.3827	908.955	-97.42449999999999	-0.137656	0	-0.334342	0.204006	-2.88015	0.308703	-50.9388	455.034	51.1254	-0.158244	0	-0.852067	-0.7633219999999999	6.81872	0.766118
1.39	-67.30589999999999	898.2670000000001	-97.2773	-0.136889	0	-0.334602	0.198972	-2.65549	0.287574	-50.2271	453.543	42.5101	-0.160855	0	-0.849994	-0.861025	7.77493	0.7287360000000001
1.4	-70.0295	886.918	-100.539	-0.136004	0	-0.334475	0.153952	-1.94978	0.221023	-45.7243	458.338	35.3932	-0.165049	0	-0.847305	-0.864949	8.670199999999999	0.669519
1.41	-69.5736	885.155	-104.812	-0.135178	0	-0.334289	0.0943716	-1.20065	0.14217	-38.3647	465.797	31.6829	-0.169153	0	-0.844754	-0.753087	9.14344	0.621924
1.42	-66.68049999999999	892.401	-106.65	-0.134431	0	-0.33436	0.06416810000000001	-0.858777	0.102632	-32.4427	471.762	33.4017	-0.171543	0	-0.843377	-0.616787	8.96895	0.63502
1.43	-62.8426	902.989	-104.463	-0.133908	0	-0.334799	0.0825138	-1.18564	0.137162	-29.5259	471.939	39.1169	-0.171869	0	-0.843201	-0.519585	8.30499	0.6883629999999999
1.44	-58.4393	914.317	-100.584	-0.13376	0	-0.33529	0.124779	-1.95225	0.214767	-28.2865	467.382	44.0785	-0.171453	0	-0.843259	-0.461075	7.61842	0.718487
1.45	-53.4406	924.444	-98.2731	-0.133813	0	-0.335592	0.148478	-2.56845	0.27304	-27.218	464.983	44.9393	-0.17184	0	-0.842843	-0.435379	7.43787	0.718849
1.46	-48.0845	930.602	-99.27549999999999	-0.1338	0	-0.335528	0.137809	-2.66707	0.28452	-26.3108	465.907	41.9917	-0.172785	0	-0.84219	-0.43632	7.7263	0.696363
1.47	-43.8919	930.245	-103.239	-0.13342	0	-0.335125	0.108677	-2.3033	0.255622	-27.3137	466.489	38.7394	-0.172946	0	-0.842013	-0.478257	8.16813	0.678319
1.48	-41.397	921.133	-107.537	-0.132649	0	-0.334722	0.08157929999999999	-1.81524	0.211919	-30.4966	463.117	38.2091	-0.171435	0	-0.842772	-0.562369	8.540039999999999	0.704589
1.49	-40.0816	903.42	-109.747	-0.131736	0	-0.33438	0.06577089999999999	-1.48244	0.180087	-35.933	457.006	40.5661	-0.168888	0	-0.844245	-0.687213	8.740170000000001	0.775821
1.5	-38.8365	881.347	-109.803	-0.131007	0	-0.334183	0.0613995	-1.39339	0.173596	-41.2646	450.905	43.9259	-0.166914	0	-0.84567	-0.815848	8.914899999999999	0.868464
1.51	-35.7863	859.894	-108.599	-0.130646	0	-0.334196	0.0624658	-1.50096	0.189562	-42.619	447.979	46.8874	-0.166713	0	-0.846212	-0.887711	9.330970000000001	0.976618
1.52	-30.6055	841.102	-106.637	-0.130728	0	-0.334393	0.0609893	-1.67611	0.212501	-40.4558	449.787	50.3451	-0.16831	0	-0.846051	-0.8943719999999999	9.943619999999999	1.113
1.53	-24.3027	823.6319999999999	-104.607	-0.131247	0	-0.334671	0.0538936	-1.82649	0.231976	-37.1233	454.063	55.3808	-0.170788	0	-0.845695	-0.853705	10.4418	1.27356
1.54	-16.4258	805.314	-103.057	-0.132191	0	-0.334973	0.0386932	-1.89703	0.242764	-33.5839	457.898	62.0559	-0.172963	0	-0.8454120000000001	-0.773946	10.5523	1.43009
1.55	-7.35693	784.298	-101.735	-0.133273	0	-0.335322	0.0178097	-1.89863	0.24628	-29.6068	461.189	70.0849	-0.174628	0	-0.8453580000000001	-0.659897	10.2793	1.5621
1.56	1.09352	760.678	-100.157	-0.134296	0	-0.335743	-0.00271243	-1.88683	0.248435	-23.8246	465.719	78.06619999999999	-0.176401	0	-0.845234	-0.499543	9.76498	1.63686
1.57	7.10446	736.436	-98.169	-0.135073	0	-0.336291	-0.018227	-1.88938	0.251859	-14.3263	472.404	85.09610000000001	-0.178541	0	-0.844782	-0.275347	9.07945	1.63552
1.58	10.8719	712.8150000000001	-96.36069999999999	-0.13531	0	-0.336997	-0.0283026	-1.85565	0.250853	-1.5739	481.398	92.4016	-0.180743	0	-0.844303	-0.0267411	8.179130000000001	1.56994
1.59	14.485	689.187	-94.5258	-0.135014	0	-0.337833	-0.0389747	-1.85439	0.25434	12.838	492.587	102.442	-0.182613	0	-0.844239	0.180209	6.91453	1.438
1.6	17.2053	665.134	-92.03879999999999	-0.134412	0	-0.338841	-0.0519425	-2.00803	0.277864	27.5306	505.885	116.801	-0.183615	0	-0.844855	0.288016	5.2924	1.22193
1.61	17.1978	641.41	-89.3207	-0.133542	0	-0.33998	-0.0602539	-2.24723	0.312942	40.0252	521.532	130.856	-0.184292	0	-0.84565	0.296619	3.86497	0.9697519999999999
1.62	14.5752	619.853	-87.0664	-0.132365	0	-0.34099	-0.0576535	-2.45188	0.344398	50.2818	535.726	139.149	-0.184911	0	-0.846128	0.280081	2.98412	0.7750939999999999
1.63	11.4344	601.764	-86.0068	-0.130815	0	-0.341833	-0.0474853	-2.49903	0.357173	55.3416	547.609	141.598	-0.184924	0	-0.846401	0.254899	2.52224	0.652187
1.64	8.54659	587.628	-86.8297	-0.129029	0	-0.342503	-0.0350828	-2.41215	0.356426	54.1784	555.027	139.912	-0.183609	0	-0.84697	0.218032	2.23362	0.563055
1.65	4.89597	578.41	-89.4884	-0.12711	0	-0.342934	-0.0190462	-2.25012	0.348125	50.0102	556.085	135.84	-0.180684	0	-0.848002	0.184102	2.04711	0.500065
1.66	1.17619	573.063	-92.3597	-0.125265	0	-0.343355	-0.00449508	-2.19009	0.352974	42.6727	553.929	132.317	-0.176435	0	-0.849505	0.145923	1.89421	0.452469
1.67	-2.08959	570.544	-93.6339	-0.123664	0	-0.343902	0.008657379999999999	-2.36383	0.387935	34.7483	549.0359999999999	130.111	-0.171685	0	-0.8513269999999999	0.101916	1.61032	0.381614
1.68	-6.61239	570.5309999999999	-92.95910000000001	-0.1223	0	-0.344557	0.032801	-2.83014	0.461127	28.1387	544.229	129.498	-0.167266	0	-0.85309	0.0608829	1.17753	0.28019
1.69	-11.4477	573.107	-91.34829999999999	-0.121269	0	-0.345316	0.06955450000000001	-3.4821	0.555017	23.0421	545.054	131.378	-0.163961	0	-0.854417	0.0283291	0.670116	0.161522
1.7	-15.464	579.171	-90.22239999999999	-0.120543	0	-0.34596	0.111905	-4.19115	0.652891	20.3293	557.42	134.741	-0.16271	0	-0.854981	0.0112024	0.307165	0.0742488
1.71	-18.8344	590.663	-90.492	-0.119962	0	-0.346304	0.154185	-4.83538	0.740799	19.2194	584.9829999999999	138.443	-0.163637	0	-0.854971	0.0159012	0.483987	0.114541
1.72	-22.8577	608.203	-92.02290000000001	-0.119276	0	-0.346467	0.199155	-5.29916	0.801779	18.1793	621.86	143.422	-0.164974	0	-0.855091	0.0318711	1.09022	0.251441
